<svg class="animated" id="freepik_stories-messaging-fun" xmlns="http://www.w3.org/2000/svg" viewBox="0 0 500 500" version="1.1" xmlns:xlink="http://www.w3.org/1999/xlink" xmlns:svgjs="http://svgjs.com/svgjs"><style>svg#freepik_stories-messaging-fun:not(.animated) .animable {opacity: 0;}svg#freepik_stories-messaging-fun.animated #freepik--background-simple--inject-62 {animation: 1s 1 forwards cubic-bezier(.36,-0.01,.5,1.38) lightSpeedRight;animation-delay: 0s;}svg#freepik_stories-messaging-fun.animated #freepik--Shadow--inject-62 {animation: 1s 1 forwards cubic-bezier(.36,-0.01,.5,1.38) lightSpeedLeft;animation-delay: 0s;}svg#freepik_stories-messaging-fun.animated #freepik--Floor--inject-62 {animation: 1s 1 forwards cubic-bezier(.36,-0.01,.5,1.38) slideLeft;animation-delay: 0s;}svg#freepik_stories-messaging-fun.animated #freepik--Chat--inject-62 {animation: 1s 1 forwards cubic-bezier(.36,-0.01,.5,1.38) slideLeft,6s Infinite  linear shake;animation-delay: 0s,1s;}svg#freepik_stories-messaging-fun.animated #freepik--Window--inject-62 {animation: 1s 1 forwards cubic-bezier(.36,-0.01,.5,1.38) slideLeft;animation-delay: 0s;}svg#freepik_stories-messaging-fun.animated #freepik--Expressions--inject-62 {animation: 6s Infinite  linear floating;animation-delay: 0s;}svg#freepik_stories-messaging-fun.animated #freepik--Character--inject-62 {animation: 1s 1 forwards cubic-bezier(.36,-0.01,.5,1.38) slideRight;animation-delay: 0s;}            @keyframes lightSpeedRight {              from {                transform: translate3d(50%, 0, 0) skewX(-20deg);                opacity: 0;              }              60% {                transform: skewX(10deg);                opacity: 1;              }              80% {                transform: skewX(-2deg);              }              to {                opacity: 1;                transform: translate3d(0, 0, 0);              }            }                    @keyframes lightSpeedLeft {              from {                transform: translate3d(-50%, 0, 0) skewX(20deg);                opacity: 0;              }              60% {                transform: skewX(-10deg);                opacity: 1;              }              80% {                transform: skewX(2deg);              }              to {                opacity: 1;                transform: translate3d(0, 0, 0);              }            }                    @keyframes slideLeft {                0% {                    opacity: 0;                    transform: translateX(-30px);                }                100% {                    opacity: 1;                    transform: translateX(0);                }            }                    @keyframes shake {                10%, 90% {                    transform: translate3d(-1px, 0, 0);                  }                  20%, 80% {                    transform: translate3d(2px, 0, 0);                  }                  30%, 50%, 70% {                    transform: translate3d(-4px, 0, 0);                  }                  40%, 60% {                    transform: translate3d(4px, 0, 0);                  }            }                    @keyframes floating {                0% {                    opacity: 1;                    transform: translateY(0px);                }                50% {                    transform: translateY(-10px);                }                100% {                    opacity: 1;                    transform: translateY(0px);                }            }                    @keyframes slideRight {                0% {                    opacity: 0;                    transform: translateX(30px);                }                100% {                    opacity: 1;                    transform: translateX(0);                }            }        .animator-hidden { display: none; }</style><g id="freepik--background-simple--inject-62" class="animable" style="transform-origin: 245.27px 253.216px;"><path d="M388.16,94.46C359.8,78,324.72,69.6,291.49,74.31c-19.77,2.8-38.17,11.9-53.71,24.22-36.9,29.25-61.91,69.25-105.63,90.23-25.41,12.19-52,18.52-68.31,43.3-32.52,49.32-13.37,118,29,155.19,45.5,39.9,111.12,52.09,169.79,43.63,96.24-13.88,168.46-102,178.65-196.59,3.87-36,3-77.29-18-108.33C414.85,113.47,402.58,102.84,388.16,94.46Z" style="fill: #FCA53C; transform-origin: 245.27px 253.216px;" id="eliqimpbhwrco" class="animable"></path><g id="el99fwt5l3yx"><path d="M388.16,94.46C359.8,78,324.72,69.6,291.49,74.31c-19.77,2.8-38.17,11.9-53.71,24.22-36.9,29.25-61.91,69.25-105.63,90.23-25.41,12.19-52,18.52-68.31,43.3-32.52,49.32-13.37,118,29,155.19,45.5,39.9,111.12,52.09,169.79,43.63,96.24-13.88,168.46-102,178.65-196.59,3.87-36,3-77.29-18-108.33C414.85,113.47,402.58,102.84,388.16,94.46Z" style="fill: rgb(255, 255, 255); opacity: 0.7; transform-origin: 245.27px 253.216px;" class="animable" id="el1r968tstyhy"></path></g></g><g id="freepik--Shadow--inject-62" class="animable animator-hidden" style="transform-origin: 252.36px 413px;"><ellipse cx="252.36" cy="413" rx="179.48" ry="30.74" style="fill: #FCA53C; transform-origin: 252.36px 413px;" id="elz9h7vpt7w0n" class="animable"></ellipse><g id="elgkthy6njf9n"><ellipse cx="252.36" cy="413" rx="179.48" ry="30.74" style="fill: rgb(255, 255, 255); opacity: 0.5; transform-origin: 252.36px 413px;" class="animable" id="elc8gk16setcl"></ellipse></g></g><g id="freepik--Floor--inject-62" class="animable animator-hidden" style="transform-origin: 252.69px 291.115px;"><line x1="57.15" y1="383.17" x2="448.23" y2="383.17" style="fill: none; stroke: rgb(38, 50, 56); stroke-linecap: round; stroke-linejoin: round; transform-origin: 252.69px 383.17px;" id="eluy19hcb00gm" class="animable"></line><line x1="70.92" y1="329.26" x2="203.32" y2="329.26" style="fill: none; stroke: rgb(38, 50, 56); stroke-linecap: round; stroke-linejoin: round; transform-origin: 137.12px 329.26px;" id="elxt1zh2c1tcd" class="animable"></line><rect x="85.63" y="332.95" width="113.35" height="21.71" style="fill: none; stroke: rgb(38, 50, 56); stroke-linecap: round; stroke-linejoin: round; transform-origin: 142.305px 343.805px;" id="elluk2h5kio0l" class="animable"></rect><rect x="85.63" y="358.35" width="113.35" height="21.71" style="fill: none; stroke: rgb(38, 50, 56); stroke-linecap: round; stroke-linejoin: round; transform-origin: 142.305px 369.205px;" id="elbsaz29hwzxd" class="animable"></rect><path d="M144.8,343.81a2.49,2.49,0,1,1-2.49-2.5A2.49,2.49,0,0,1,144.8,343.81Z" style="fill: none; stroke: rgb(38, 50, 56); stroke-linecap: round; stroke-linejoin: round; transform-origin: 142.31px 343.8px;" id="el4hw8m5up4ua" class="animable"></path><path d="M144.8,369.2a2.49,2.49,0,1,1-2.49-2.49A2.49,2.49,0,0,1,144.8,369.2Z" style="fill: none; stroke: rgb(38, 50, 56); stroke-linecap: round; stroke-linejoin: round; transform-origin: 142.31px 369.2px;" id="el3hh4h72n6im" class="animable"></path><rect x="69.97" y="328.74" width="12.76" height="54.52" style="fill: rgb(38, 50, 56); transform-origin: 76.35px 356px;" id="el89rzx2cz3xh" class="animable"></rect><line x1="203.32" y1="383.27" x2="203.32" y2="329.26" style="fill: none; stroke: rgb(38, 50, 56); stroke-linecap: round; stroke-linejoin: round; transform-origin: 203.32px 356.265px;" id="elyp9e8vjnz1l" class="animable"></line><line x1="70.5" y1="383.27" x2="203.32" y2="383.27" style="fill: none; stroke: rgb(38, 50, 56); stroke-linecap: round; stroke-linejoin: round; transform-origin: 136.91px 383.27px;" id="elr5pmcxm3si" class="animable"></line><g id="freepik--Plant--inject-226--inject-62" class="animable" style="transform-origin: 383.755px 290.56px;"><path d="M400.51,218.62s0-4.27-6-10.26-9.8-9.4-9.8-9.4-3,9.8,2.56,15.79a103.15,103.15,0,0,0,13.25,11.54Z" style="fill: #FCA53C; transform-origin: 392.211px 212.625px;" id="elq6tu9qplxbh" class="animable"></path><path d="M391.83,245.3s0-4.27-6-10.25-9.8-9.4-9.8-9.4-3,9.8,2.56,15.79A103.56,103.56,0,0,0,391.85,253Z" style="fill: #FCA53C; transform-origin: 383.536px 239.325px;" id="elcqzfjbf3zeo" class="animable"></path><path d="M400.14,225.89s.44-4.25,7-9.56S417.93,208,417.93,208s1.94,10.09-4.22,15.45a106.38,106.38,0,0,1-14.39,10.1Z" style="fill: #FCA53C; transform-origin: 408.77px 220.775px;" id="elueicbikdev" class="animable"></path><path d="M389.65,257.41s.89-4.18,8-8.78,11.58-7.13,11.58-7.13.87,10.24-5.82,14.92A104.74,104.74,0,0,1,388,264.93Z" style="fill: #FCA53C; transform-origin: 398.634px 253.215px;" id="el0xntph84eru9" class="animable"></path><path d="M391.62,291.77s0-4.27,6-10.26,9.83-9.4,9.83-9.4,3,9.8-2.57,15.79a104.65,104.65,0,0,1-13.25,11.57Z" style="fill: #FCA53C; transform-origin: 399.938px 285.79px;" id="elamwrtsgxa8" class="animable"></path><path d="M391.52,300.15s.61-4.23-4.47-11-8.39-10.7-8.39-10.7-4.35,9.3.29,16a105.42,105.42,0,0,0,11.48,13.31Z" style="fill: #FCA53C; transform-origin: 384.176px 293.105px;" id="elhbt731pop2n" class="animable"></path><path d="M385.62,325s0-4.28,6-10.26,9.8-9.4,9.8-9.4,3,9.81-2.56,15.8a104.58,104.58,0,0,1-13.23,11.54Z" style="fill: #FCA53C; transform-origin: 393.924px 319.01px;" id="ellsk1zmsiidb" class="animable"></path><path d="M389.61,347.54s-1.08-4.13,3.2-11.43,7.12-11.59,7.12-11.59,5.38,8.75,1.52,15.94A104.11,104.11,0,0,1,391.56,355Z" style="fill: #FCA53C; transform-origin: 396.166px 339.76px;" id="el8vtbqtaiyo" class="animable"></path><path d="M401.05,217.52a120.79,120.79,0,0,1-1.63,13.27c-2.37,12.21-8.28,20.1-10.64,31.13s4.42,25.25,2.6,39.43-7.34,22.08-5.76,31.51,9.85,35.07,9.85,35.07" style="fill: none; stroke: rgb(38, 50, 56); stroke-linecap: round; stroke-linejoin: round; transform-origin: 393.195px 292.725px;" id="el1pbws52ed1t" class="animable"></path><path d="M361.34,275.7s-.46-2.68,2.64-7.08,5.14-7,5.14-7,2.94,5.83.1,10.19a67.57,67.57,0,0,1-7.07,8.67Z" style="fill: #FCA53C; transform-origin: 365.886px 271.05px;" id="elhaldpy8hdyw" class="animable"></path><path d="M369.68,291.49s-.47-2.68,2.64-7.08,5.14-7,5.14-7,2.94,5.84.11,10.19a66.81,66.81,0,0,1-7.08,8.67Z" style="fill: #FCA53C; transform-origin: 374.227px 286.84px;" id="elsotp97e8xq" class="animable"></path><path d="M362.36,280.22s-.74-2.61-5.44-5.23-7.63-4-7.63-4-.12,6.53,4.33,9.22a66.11,66.11,0,0,0,10.11,4.76Z" style="fill: #FCA53C; transform-origin: 356.51px 277.98px;" id="elvt79n1wx0v" class="animable"></path><path d="M372.36,298.85s-1-2.53-6-4.64-8-3.22-8-3.22.54,6.54,5.26,8.72a67.07,67.07,0,0,0,10.57,3.66Z" style="fill: #FCA53C; transform-origin: 366.275px 297.18px;" id="el7m1kso79rts" class="animable"></path><path d="M374.86,320.6s-.47-2.68-4.87-5.78-7.18-4.83-7.18-4.83-.81,6.49,3.32,9.64a68.38,68.38,0,0,0,9.56,5.8Z" style="fill: #FCA53C; transform-origin: 369.218px 317.71px;" id="el56c7yrrol92" class="animable"></path><path d="M375.83,325.85s-.83-2.58,1.6-7.38,4.1-7.63,4.1-7.63,3.74,5.36,1.56,10.07a66.08,66.08,0,0,1-5.75,9.6Z" style="fill: #FCA53C; transform-origin: 379.733px 320.675px;" id="els1ccyamnglk" class="animable"></path><path d="M383.34,347.46s.31-2.72,4.52-6,6.9-5.24,6.9-5.24,1.18,6.43-2.77,9.81a67.42,67.42,0,0,1-9.21,6.33Z" style="fill: #FCA53C; transform-origin: 388.853px 344.29px;" id="elg64nff2ugxr" class="animable"></path><path d="M382.22,340.8s-.46-2.68-4.86-5.78-7.18-4.83-7.18-4.83-.81,6.48,3.32,9.63a66.52,66.52,0,0,0,9.56,5.8Z" style="fill: #FCA53C; transform-origin: 376.588px 337.905px;" id="elzxezhcdyvm" class="animable"></path><path d="M382.17,355.36s.23-2.72-3.27-6.83-5.7-6.48-5.7-6.48-2.42,6.06.77,10.16a67.15,67.15,0,0,0,7.79,8Z" style="fill: #FCA53C; transform-origin: 377.247px 351.13px;" id="ell79spudz3" class="animable"></path><path d="M360.88,275.07a77.59,77.59,0,0,0,2.47,8.17c2.81,7.4,7.37,11.71,10,18.37s0,16.33,2.64,25,7,13,7,19.14-2.38,23.06-2.38,23.06" style="fill: none; stroke: rgb(38, 50, 56); stroke-linecap: round; stroke-linejoin: round; transform-origin: 371.935px 321.94px;" id="elwhwdl48lf4h" class="animable"></path><path d="M368.46,365.83h39.16v14.42a1.91,1.91,0,0,1-1.91,1.91H370.4a1.91,1.91,0,0,1-1.91-1.91V365.83Z" style="fill: rgb(38, 50, 56); stroke: rgb(38, 50, 56); stroke-linecap: round; stroke-linejoin: round; transform-origin: 388.04px 373.995px;" id="el9mgk2lpiayi" class="animable"></path><path d="M407.28,370.93H368.49a3.07,3.07,0,0,1-3.07-3.06h0a3.07,3.07,0,0,1,3.07-3.05h38.79a3.06,3.06,0,0,1,3.06,3.06h0a3.06,3.06,0,0,1-3.06,3.05Z" style="fill: rgb(38, 50, 56); stroke: rgb(38, 50, 56); stroke-linecap: round; stroke-linejoin: round; transform-origin: 387.88px 367.875px;" id="els99313ph8d" class="animable"></path><line x1="370.03" y1="371.06" x2="398.19" y2="371.06" style="fill: none; stroke: rgb(255, 255, 255); stroke-linecap: round; stroke-linejoin: round; transform-origin: 384.11px 371.06px;" id="el3gieptsji8e" class="animable"></line><line x1="400.84" y1="371.06" x2="405.48" y2="371.06" style="fill: none; stroke: rgb(255, 255, 255); stroke-linecap: round; stroke-linejoin: round; transform-origin: 403.16px 371.06px;" id="el35hpukun64s" class="animable"></line><path d="M400.51,218.62s0-4.27-6-10.26-9.8-9.4-9.8-9.4-3,9.8,2.56,15.79a103.15,103.15,0,0,0,13.25,11.54Z" style="fill: rgb(38, 50, 56); transform-origin: 392.211px 212.625px;" id="els9727w6zh4" class="animable"></path><path d="M391.83,245.3s0-4.27-6-10.25-9.8-9.4-9.8-9.4-3,9.8,2.56,15.79A103.56,103.56,0,0,0,391.85,253Z" style="fill: rgb(38, 50, 56); transform-origin: 383.536px 239.325px;" id="elu2yhsscbjqm" class="animable"></path><path d="M400.14,225.89s.44-4.25,7-9.56S417.93,208,417.93,208s1.94,10.09-4.22,15.45a106.38,106.38,0,0,1-14.39,10.1Z" style="fill: rgb(38, 50, 56); transform-origin: 408.77px 220.775px;" id="elcnguf9vzgh6" class="animable"></path><path d="M389.65,257.41s.89-4.18,8-8.78,11.58-7.13,11.58-7.13.87,10.24-5.82,14.92A104.74,104.74,0,0,1,388,264.93Z" style="fill: rgb(38, 50, 56); transform-origin: 398.634px 253.215px;" id="el9orydg49w8" class="animable"></path><path d="M391.62,291.77s0-4.27,6-10.26,9.83-9.4,9.83-9.4,3,9.8-2.57,15.79a104.65,104.65,0,0,1-13.25,11.57Z" style="fill: rgb(38, 50, 56); transform-origin: 399.938px 285.79px;" id="el7nxq6frcmwe" class="animable"></path><path d="M385.62,325s0-4.28,6-10.26,9.8-9.4,9.8-9.4,3,9.81-2.56,15.8a104.58,104.58,0,0,1-13.23,11.54Z" style="fill: rgb(38, 50, 56); transform-origin: 393.924px 319.01px;" id="elkdsm6ovho6l" class="animable"></path><path d="M361.34,275.7s-.46-2.68,2.64-7.08,5.14-7,5.14-7,2.94,5.83.1,10.19a67.57,67.57,0,0,1-7.07,8.67Z" style="fill: rgb(38, 50, 56); transform-origin: 365.886px 271.05px;" id="el2tux89hvyxd" class="animable"></path><path d="M387.05,289.15c-5.07-6.77-8.39-10.7-8.39-10.7s-.18.4-.42,1.06a13.49,13.49,0,0,0-.78-2.06s-2,2.56-5.14,7-2.64,7.08-2.64,7.08l.81,4.82a67,67,0,0,0,6.41-7.74,12.21,12.21,0,0,0,2.05,5.89,105.42,105.42,0,0,0,11.48,13.31l1.09-7.62S392.13,295.92,387.05,289.15Z" style="fill: rgb(38, 50, 56); transform-origin: 380.597px 292.63px;" id="eldppw293u9vt" class="animable"></path><path d="M362.36,280.22s-.74-2.61-5.44-5.23-7.63-4-7.63-4-.12,6.53,4.33,9.22a66.11,66.11,0,0,0,10.11,4.76Z" style="fill: rgb(38, 50, 56); transform-origin: 356.51px 277.98px;" id="el1fmys3e7gsj" class="animable"></path><path d="M372.36,298.85s-1-2.53-6-4.64-8-3.22-8-3.22.54,6.54,5.26,8.72a67.07,67.07,0,0,0,10.57,3.66Z" style="fill: rgb(38, 50, 56); transform-origin: 366.275px 297.18px;" id="elwornf224wbd" class="animable"></path><path d="M374.86,320.6s-.47-2.68-4.87-5.78-7.18-4.83-7.18-4.83-.81,6.49,3.32,9.64a68.38,68.38,0,0,0,9.56,5.8Z" style="fill: rgb(38, 50, 56); transform-origin: 369.218px 317.71px;" id="elg8qi8mey69s" class="animable"></path><path d="M375.83,325.85s-.83-2.58,1.6-7.38,4.1-7.63,4.1-7.63,3.74,5.36,1.56,10.07a66.08,66.08,0,0,1-5.75,9.6Z" style="fill: rgb(38, 50, 56); transform-origin: 379.733px 320.675px;" id="eldlmahimm90q" class="animable"></path><path d="M399.93,324.52s-2.84,4.28-7.12,11.59c-.52.88-1,1.72-1.33,2.51q-1.53,1.15-3.62,2.8c-4.21,3.32-4.52,6-4.52,6l-.56,4.86a67.19,67.19,0,0,0,6.9-4.53l1.88,7.19a104.11,104.11,0,0,0,9.89-14.52C405.31,333.27,399.93,324.52,399.93,324.52Z" style="fill: rgb(38, 50, 56); transform-origin: 392.812px 339.73px;" id="elnemwui1gvup" class="animable"></path><path d="M382.22,340.8s-.46-2.68-4.86-5.78-7.18-4.83-7.18-4.83-.81,6.48,3.32,9.63a66.52,66.52,0,0,0,9.56,5.8Z" style="fill: rgb(38, 50, 56); transform-origin: 376.588px 337.905px;" id="elhs3pln3uayr" class="animable"></path><path d="M382.17,355.36s.23-2.72-3.27-6.83-5.7-6.48-5.7-6.48-2.42,6.06.77,10.16a67.15,67.15,0,0,0,7.79,8Z" style="fill: rgb(38, 50, 56); transform-origin: 377.247px 351.13px;" id="eliyne4ezt33c" class="animable"></path></g></g><g id="freepik--Chat--inject-62" class="animable" style="transform-origin: 150.565px 212.2px;"><path d="M225.36,254.1l-13.2-5.36v36.67a9.5,9.5,0,0,1-9.51,9.5H85.27a9.5,9.5,0,0,1-9.5-9.5V139a9.5,9.5,0,0,1,9.5-9.51H202.65a9.51,9.51,0,0,1,9.51,9.51v93.84Z" style="fill: rgb(255, 255, 255); stroke: rgb(38, 50, 56); stroke-linecap: round; stroke-linejoin: round; transform-origin: 150.565px 212.2px;" id="elmtz76gd7te" class="animable"></path><polygon points="87.78 169.72 92.72 162.81 92.72 141.22 171.59 141.22 171.59 180.89 92.72 180.89 92.72 170.09 87.78 169.72" style="fill: rgb(38, 50, 56); transform-origin: 129.685px 161.055px;" id="elirmzbqvzcwk" class="animable"></polygon><circle cx="132.8" cy="161.06" r="13.22" style="fill: rgb(255, 255, 255); transform-origin: 132.8px 161.06px;" id="elocjfdcgsgai" class="animable"></circle><polygon points="130.38 168.5 130.38 153.47 139.89 160.98 130.38 168.5" style="fill: #FCA53C; stroke: rgb(38, 50, 56); stroke-linecap: round; stroke-linejoin: round; transform-origin: 135.135px 160.985px;" id="elwzqrb64stw" class="animable"></polygon><polygon points="202.37 272.3 197.42 268.01 197.42 254.61 118.56 254.61 118.56 279.24 197.42 279.24 197.42 272.54 202.37 272.3" style="fill: #FCA53C; stroke: rgb(38, 50, 56); stroke-linecap: round; stroke-linejoin: round; transform-origin: 160.465px 266.925px;" id="elprfi8mqvd4" class="animable"></polygon><path d="M147.6,262.17v9h-1.67v-3.87h-4.68v3.87h-1.67v-9h1.67v3.73h4.68v-3.73Z" style="fill: rgb(38, 50, 56); transform-origin: 143.59px 266.67px;" id="elziaouk57jkq" class="animable"></path><path d="M155.65,267.17v4h-1.53v-.84a2.43,2.43,0,0,1-2.16.93c-1.58,0-2.57-.87-2.57-2.07s.77-2.05,2.86-2.05H154v-.1c0-.94-.56-1.5-1.71-1.5a3.42,3.42,0,0,0-2.09.68l-.63-1.17a4.8,4.8,0,0,1,2.91-.85C154.5,264.24,155.65,265.18,155.65,267.17ZM154,269.05v-.8h-1.66c-1.1,0-1.39.42-1.39.92s.49.95,1.31.95A1.75,1.75,0,0,0,154,269.05Z" style="fill: rgb(38, 50, 56); transform-origin: 152.52px 267.734px;" id="elcf1lvg16ak" class="animable"></path><path d="M164.5,267.26v3.95h-1.61v-3.75c0-1.22-.6-1.81-1.64-1.81a1.82,1.82,0,0,0-1.92,2.07v3.49h-1.61v-9.58h1.61v3.49a3.07,3.07,0,0,1,2.3-.88A2.69,2.69,0,0,1,164.5,267.26Z" style="fill: rgb(38, 50, 56); transform-origin: 161.121px 266.42px;" id="el6cai0ai92vi" class="animable"></path><path d="M172.33,267.17v4h-1.52v-.84a2.46,2.46,0,0,1-2.17.93c-1.58,0-2.57-.87-2.57-2.07s.78-2.05,2.87-2.05h1.78v-.1c0-.94-.57-1.5-1.72-1.5a3.46,3.46,0,0,0-2.09.68l-.63-1.17a4.8,4.8,0,0,1,2.91-.85C171.18,264.24,172.33,265.18,172.33,267.17Zm-1.61,1.88v-.8h-1.67c-1.09,0-1.39.42-1.39.92s.49.95,1.31.95A1.76,1.76,0,0,0,170.72,269.05Z" style="fill: rgb(38, 50, 56); transform-origin: 169.2px 267.734px;" id="el8w1agott9s7" class="animable"></path><path d="M181.19,267.26v3.95h-1.62v-3.75c0-1.22-.6-1.81-1.64-1.81a1.83,1.83,0,0,0-1.92,2.07v3.49H174.4v-9.58H176v3.49a3.07,3.07,0,0,1,2.3-.88A2.69,2.69,0,0,1,181.19,267.26Z" style="fill: rgb(38, 50, 56); transform-origin: 177.806px 266.42px;" id="ellhyk0zrrgy" class="animable"></path><polygon points="202.37 240.07 197.42 235.78 197.42 222.38 118.56 222.38 118.56 247 197.42 247 197.42 240.3 202.37 240.07" style="fill: #FCA53C; stroke: rgb(38, 50, 56); stroke-linecap: round; stroke-linejoin: round; transform-origin: 160.465px 234.69px;" id="el8jdc7ov40ft" class="animable"></polygon><circle cx="160.46" cy="234.69" r="8.73" style="fill: rgb(255, 255, 255); stroke: rgb(38, 50, 56); stroke-linecap: round; stroke-linejoin: round; transform-origin: 160.46px 234.69px;" id="elflcghs0labv" class="animable"></circle><circle cx="136.39" cy="234.69" r="8.73" style="fill: rgb(255, 255, 255); stroke: rgb(38, 50, 56); stroke-linecap: round; stroke-linejoin: round; transform-origin: 136.39px 234.69px;" id="elrz8offzckm" class="animable"></circle><circle cx="183.49" cy="234.69" r="8.73" style="fill: rgb(255, 255, 255); stroke: rgb(38, 50, 56); stroke-linecap: round; stroke-linejoin: round; transform-origin: 183.49px 234.69px;" id="ells4d0fie8lb" class="animable"></circle><polyline points="131.62 229.83 134.01 232.8 130.66 232.8" style="fill: none; stroke: rgb(38, 50, 56); stroke-linecap: round; stroke-linejoin: round; transform-origin: 132.335px 231.315px;" id="el2nvn0dlrulm" class="animable"></polyline><polyline points="140.37 229.83 137.97 232.8 141.33 232.8" style="fill: none; stroke: rgb(38, 50, 56); stroke-linecap: round; stroke-linejoin: round; transform-origin: 139.65px 231.315px;" id="elk99stejkry" class="animable"></polyline><path d="M130.08,235.2h12.17s-1.37,6.13-5.86,6.13C131.29,241.33,130.08,235.2,130.08,235.2Z" style="fill: #FCA53C; stroke: rgb(38, 50, 56); stroke-linecap: round; stroke-linejoin: round; transform-origin: 136.165px 238.265px;" id="el9ypb2v5m9g" class="animable"></path><polyline points="155.91 229.83 158.31 232.8 154.95 232.8" style="fill: none; stroke: rgb(38, 50, 56); stroke-linecap: round; stroke-linejoin: round; transform-origin: 156.63px 231.315px;" id="el46l4oc99g3o" class="animable"></polyline><polyline points="164.67 229.83 162.27 232.8 165.63 232.8" style="fill: none; stroke: rgb(38, 50, 56); stroke-linecap: round; stroke-linejoin: round; transform-origin: 163.95px 231.315px;" id="elqubphfonbl" class="animable"></polyline><path d="M154.38,235.2h12.17s-1.38,6.13-5.86,6.13C155.58,241.33,154.38,235.2,154.38,235.2Z" style="fill: #FCA53C; stroke: rgb(38, 50, 56); stroke-linecap: round; stroke-linejoin: round; transform-origin: 160.465px 238.265px;" id="elzx0qx0pnllm" class="animable"></path><polyline points="178.94 229.83 181.34 232.8 177.98 232.8" style="fill: none; stroke: rgb(38, 50, 56); stroke-linecap: round; stroke-linejoin: round; transform-origin: 179.66px 231.315px;" id="ellzyr7mh665r" class="animable"></polyline><polyline points="187.69 229.83 185.3 232.8 188.65 232.8" style="fill: none; stroke: rgb(38, 50, 56); stroke-linecap: round; stroke-linejoin: round; transform-origin: 186.975px 231.315px;" id="elvnpp1xmo58a" class="animable"></polyline><path d="M177.41,235.2h12.17s-1.38,6.13-5.87,6.13C178.61,241.33,177.41,235.2,177.41,235.2Z" style="fill: #FCA53C; stroke: rgb(38, 50, 56); stroke-linecap: round; stroke-linejoin: round; transform-origin: 183.495px 238.265px;" id="elmohb1md55rm" class="animable"></path><polygon points="87.78 207.26 92.72 202.97 92.72 189.57 171.59 189.57 171.59 214.2 92.72 214.2 92.72 207.5 87.78 207.26" style="fill: #FCA53C; stroke: rgb(38, 50, 56); stroke-linecap: round; stroke-linejoin: round; transform-origin: 129.685px 201.885px;" id="elijgd6ukm6q" class="animable"></polygon><path d="M128.37,197.06h1.68v7.61h4.72v1.42h-6.4Z" style="fill: rgb(38, 50, 56); transform-origin: 131.57px 201.575px;" id="elcwt2473rra" class="animable"></path><path d="M135.32,202.64a3.67,3.67,0,1,1,3.66,3.54A3.47,3.47,0,0,1,135.32,202.64Zm5.71,0A2,2,0,1,0,139,204.8,2,2,0,0,0,141,202.64Z" style="fill: rgb(38, 50, 56); transform-origin: 138.988px 202.513px;" id="el3g24hocale4" class="animable"></path><path d="M143.64,202.64a3.68,3.68,0,1,1,3.67,3.54A3.47,3.47,0,0,1,143.64,202.64Zm5.72,0a2,2,0,1,0-2.05,2.16A2,2,0,0,0,149.36,202.64Z" style="fill: rgb(38, 50, 56); transform-origin: 147.317px 202.503px;" id="elbpmmx3hrj2" class="animable"></path><path d="M155.35,203.13l-1.2,1.14v1.82h-1.61v-9.58h1.61v5.79l3.35-3.1h1.93l-2.88,2.89,3.15,4h-2Z" style="fill: rgb(38, 50, 56); transform-origin: 156.12px 201.3px;" id="eleq2ogaiqzad" class="animable"></path><path d="M160.46,205.17a1,1,0,1,1,1,1A1,1,0,0,1,160.46,205.17Zm.09-8.11h1.91l-.33,6h-1.27Z" style="fill: rgb(38, 50, 56); transform-origin: 161.46px 201.615px;" id="elty8t35hhz6" class="animable"></path><circle cx="112.18" cy="202.26" r="8.73" style="fill: rgb(255, 255, 255); stroke: rgb(38, 50, 56); stroke-linecap: round; stroke-linejoin: round; transform-origin: 112.18px 202.26px;" id="elgz5b32ps5b" class="animable"></circle><polyline points="107.87 197.48 110.14 200.29 106.97 200.29" style="fill: none; stroke: rgb(38, 50, 56); stroke-linecap: round; stroke-linejoin: round; transform-origin: 108.555px 198.885px;" id="elv7iajw3x5cs" class="animable"></polyline><polyline points="116.16 197.48 113.89 200.29 117.07 200.29" style="fill: none; stroke: rgb(38, 50, 56); stroke-linecap: round; stroke-linejoin: round; transform-origin: 115.48px 198.885px;" id="eluh55f8xupqe" class="animable"></polyline><path d="M106.42,202.56h11.52s-1.3,5.81-5.55,5.81C107.56,208.37,106.42,202.56,106.42,202.56Z" style="fill: #FCA53C; stroke: rgb(38, 50, 56); stroke-linecap: round; stroke-linejoin: round; transform-origin: 112.18px 205.465px;" id="ele24btdrgmh9" class="animable"></path></g><g id="freepik--Window--inject-62" class="animable" style="transform-origin: 318.185px 160.75px;"><line x1="238.56" y1="83.78" x2="238.56" y2="237.72" style="fill: none; stroke: rgb(38, 50, 56); stroke-linecap: round; stroke-linejoin: round; transform-origin: 238.56px 160.75px;" id="eloir9evt6zna" class="animable"></line><line x1="221.37" y1="158.13" x2="398.79" y2="158.13" style="fill: none; stroke: rgb(38, 50, 56); stroke-linecap: round; stroke-linejoin: round; transform-origin: 310.08px 158.13px;" id="elf5liuga6l3" class="animable"></line><line x1="362.73" y1="83.78" x2="362.73" y2="205.48" style="fill: none; stroke: rgb(38, 50, 56); stroke-linecap: round; stroke-linejoin: round; transform-origin: 362.73px 144.63px;" id="el54ntwh4ou6l" class="animable"></line><line x1="314.26" y1="106.97" x2="328.36" y2="92.87" style="fill: none; stroke: rgb(38, 50, 56); stroke-linecap: round; stroke-linejoin: round; transform-origin: 321.31px 99.92px;" id="elf38aomsy1s" class="animable"></line><line x1="318.29" y1="129.33" x2="332.39" y2="115.23" style="fill: none; stroke: rgb(38, 50, 56); stroke-linecap: round; stroke-linejoin: round; transform-origin: 325.34px 122.28px;" id="elng10blkmlrf" class="animable"></line><line x1="310.08" y1="118.13" x2="342.49" y2="85.72" style="fill: none; stroke: rgb(38, 50, 56); stroke-linecap: round; stroke-linejoin: round; transform-origin: 326.285px 101.925px;" id="ell9dt958es8a" class="animable"></line><line x1="386.77" y1="187.53" x2="400.87" y2="173.43" style="fill: none; stroke: rgb(38, 50, 56); stroke-linecap: round; stroke-linejoin: round; transform-origin: 393.82px 180.48px;" id="elgqz6ueeu1ks" class="animable"></line><line x1="382.59" y1="198.69" x2="415" y2="166.28" style="fill: none; stroke: rgb(38, 50, 56); stroke-linecap: round; stroke-linejoin: round; transform-origin: 398.795px 182.485px;" id="elj86kgpwth3n" class="animable"></line></g><g id="freepik--Expressions--inject-62" class="animable" style="transform-origin: 296.135px 162.16px;"><circle cx="241.98" cy="194.85" r="16.62" style="fill: rgb(255, 255, 255); stroke: rgb(38, 50, 56); stroke-linecap: round; stroke-linejoin: round; transform-origin: 241.98px 194.85px;" id="ele7rhdogfwuk" class="animable"></circle><polygon points="248.43 204.71 242 201.35 235.58 204.74 236.79 197.59 231.58 192.54 238.76 191.47 241.95 184.96 245.18 191.46 252.36 192.48 247.18 197.56 248.43 204.71" style="fill: #FCA53C; transform-origin: 241.97px 194.85px;" id="elzxib67jg31o" class="animable"></polygon><circle cx="350.29" cy="166.44" r="16.62" style="fill: rgb(255, 255, 255); stroke: rgb(38, 50, 56); stroke-linecap: round; stroke-linejoin: round; transform-origin: 350.29px 166.44px;" id="elp5rclttu32s" class="animable"></circle><polyline points="341.6 157.26 346.17 162.93 339.76 162.93" style="fill: none; stroke: rgb(38, 50, 56); stroke-linecap: round; stroke-linejoin: round; transform-origin: 342.965px 160.095px;" id="els1aeewtvqb" class="animable"></polyline><polyline points="358.32 157.26 353.75 162.93 360.15 162.93" style="fill: none; stroke: rgb(38, 50, 56); stroke-linecap: round; stroke-linejoin: round; transform-origin: 356.95px 160.095px;" id="eldsvsxdfouev" class="animable"></polyline><path d="M338.67,167.51h23.25s-2.63,11.72-11.2,11.72C341,179.23,338.67,167.51,338.67,167.51Z" style="fill: #FCA53C; stroke: rgb(38, 50, 56); stroke-linecap: round; stroke-linejoin: round; transform-origin: 350.295px 173.37px;" id="el7hkfqwqhd07" class="animable"></path><circle cx="281.77" cy="129.47" r="16.62" style="fill: rgb(255, 255, 255); stroke: rgb(38, 50, 56); stroke-linecap: round; stroke-linejoin: round; transform-origin: 281.77px 129.47px;" id="eltgwfurctr5k" class="animable"></circle><path d="M278.07,124.52c0,1.25-.33,2.25-.74,2.25s-.75-1-.75-2.25.33-2.24.75-2.24S278.07,123.28,278.07,124.52Z" style="fill: rgb(38, 50, 56); transform-origin: 277.325px 124.525px;" id="eluqw6fcysf0l" class="animable"></path><path d="M288,124.52c0,1.25-.34,2.25-.75,2.25s-.75-1-.75-2.25.33-2.24.75-2.24S288,123.28,288,124.52Z" style="fill: rgb(38, 50, 56); transform-origin: 287.25px 124.525px;" id="el4y1xwbh4kxy" class="animable"></path><path d="M271.27,129.47s2.47,8.37,10.5,8.63,9.93-8.63,9.93-8.63" style="fill: rgb(255, 255, 255); stroke: rgb(38, 50, 56); stroke-linecap: round; stroke-linejoin: round; transform-origin: 281.485px 133.788px;" id="elmkuv1nvq8ef" class="animable"></path></g><g id="freepik--Character--inject-62" class="animable" style="transform-origin: 225.177px 301.23px;"><path d="M181.37,330.78s-22.26,5.68-41.44,32c0,0-10.18-2.37-11.84.94s9,4.27,9,4.27,13,27,36,29.6c0,0,1.43,9,3.56,9.23s4.73-8.76,4.73-8.76,27.76-5.57,37-21.37C218.34,376.66,203.63,332.43,181.37,330.78Z" style="fill: rgb(255, 255, 255); transform-origin: 173.147px 368.802px;" id="elcamj5xzvklp" class="animable"></path><path d="M153.58,364.46s11.31-1.06,29.63,12.7" style="fill: none; stroke: rgb(38, 50, 56); stroke-linecap: round; stroke-linejoin: round; transform-origin: 168.395px 370.801px;" id="el97aymb9rl6s" class="animable"></path><path d="M158.6,358s8.84.63,13.23,7.5" style="fill: none; stroke: rgb(38, 50, 56); stroke-linecap: round; stroke-linejoin: round; transform-origin: 165.215px 361.75px;" id="elzt01juhbuko" class="animable"></path><path d="M181.37,330.78s-22.26,5.68-41.44,32c0,0-10.18-2.37-11.84.94s9,4.27,9,4.27,13,27,36,29.6c0,0,1.43,9,3.56,9.23s4.73-8.76,4.73-8.76,27.76-5.57,37-21.37C218.34,376.66,203.63,332.43,181.37,330.78Z" style="fill: none; stroke: rgb(38, 50, 56); stroke-linecap: round; stroke-linejoin: round; transform-origin: 173.147px 368.802px;" id="el32e4waixg9m" class="animable"></path><path d="M288.17,426.83c10.9-.78,21.47-3.26,30.91-8.39,22.37-12.15,34.47-36.87,38.32-61.24,3.78-24,6.73-51.79,13.3-70.6,8.43-24.14,3.72-49.19-20.74-62.68-16.63-9.17-36.87-10.82-55.3-6.22-18.08,4.52-39.83,16-50.85,31.37-13,18.23-21,38.65-36.67,55.35-16.91,18-37.41,33.89-34.47,61.46,3.43,32.27,36.82,49.4,65.16,55.74C253.49,425.12,271.24,428,288.17,426.83Z" style="fill: #FCA53C; transform-origin: 273.474px 321.158px;" id="elcpeh4w7lh4e" class="animable"></path><path d="M287.91,427.45c10.91-.78,21.47-3.26,30.91-8.39,22.37-12.15,34.47-36.87,38.32-61.24,3.78-24,6.73-51.79,13.3-70.61,8.43-24.13,3.72-49.18-20.74-62.67-16.63-9.17-36.87-10.82-55.3-6.22-18.08,4.52-39.83,16-50.85,31.37-13,18.23-21,38.65-36.67,55.35-16.91,18-37.41,33.89-34.47,61.46,3.43,32.27,36.82,49.4,65.16,55.74C253.23,425.74,271,428.65,287.91,427.45Z" style="fill: none; stroke: rgb(38, 50, 56); stroke-linecap: round; stroke-linejoin: round; transform-origin: 273.214px 321.783px;" id="el8clga43bw5o" class="animable"></path><path d="M338.26,271.39a73.59,73.59,0,0,1,12-9.63" style="fill: none; stroke: rgb(38, 50, 56); stroke-linecap: round; stroke-linejoin: round; transform-origin: 344.26px 266.575px;" id="elgidznf686o7" class="animable"></path><path d="M321.5,261.76s2.32-12.36,10.23-19" style="fill: none; stroke: rgb(38, 50, 56); stroke-linecap: round; stroke-linejoin: round; transform-origin: 326.615px 252.26px;" id="elhqrx5jm0txb" class="animable"></path><g id="elno2lfb8moah"><path d="M313,246.71c6.92-7.71,18.74-19,27-14.06,3.46,8.19-6.59,16.69-5.2,25.47.46,2.88,2.11,5.41,3.57,7.93a72.32,72.32,0,0,1,6.18,57.87c-1.89,5.84-4.55,11.47-5.47,17.53-1.22,8.05,0,15.74-3.89,23.19-3.77,7.21-9.9,13-16.26,17.91-21.48,16.72-46.44,25.19-73.25,27.78a67.77,67.77,0,0,1-27.84-3.16c-2.24-.75-4.56-1.69-6-3.53-2.74-3.4-1.55-8.74,1.44-11.92s7.27-4.74,11.39-6.19C234.73,382,245,378.37,254.24,373s17.71-12.8,22.61-22.37c5.28-10.32,6.11-22.27,6.57-33.85.72-17.87.8-35.95-3.15-53.38-1.42-6.31-1.24-18,5-22.43C291.93,236.17,306.94,243.28,313,246.71Z" style="opacity: 0.1; transform-origin: 279.124px 321.039px;" class="animable" id="elepgrdij9ma"></path></g><path d="M337.11,306s1.3-9.8,3.73-9.42,4.5,9.42,4.5,9.42,24,26.6,17.68,51.95c0,0,5.18,6.7,4.51,7.57-1.8,2.34-8.42,0-8.42,0s-25.42,20.18-47.9,22.28c0,0-3.44,7-5.64,6.62s0-11.43,0-11.43-15.72-23.46-11.25-46.69c0,0-5.86-3.84-4.17-6.25s7.9-1.14,7.9-1.14S312.7,310.49,337.11,306Z" style="fill: rgb(255, 255, 255); transform-origin: 328.717px 345.502px;" id="el3jkatq68zzf" class="animable"></path><path d="M315.16,338.4S327.63,336,342,354.21" style="fill: none; stroke: rgb(38, 50, 56); stroke-linecap: round; stroke-linejoin: round; transform-origin: 328.58px 346.253px;" id="el7uxih1ft5av" class="animable"></path><path d="M332.17,337c5.58.8,13.23,3.68,20.82,12.21" style="fill: none; stroke: rgb(38, 50, 56); stroke-linecap: round; stroke-linejoin: round; transform-origin: 342.58px 343.105px;" id="elynew5diyv4b" class="animable"></path><path d="M337.11,306s1.3-9.8,3.73-9.42,4.5,9.42,4.5,9.42,24,26.6,17.68,51.95c0,0,5.18,6.7,4.51,7.57-1.8,2.34-8.42,0-8.42,0s-25.42,20.18-47.9,22.28c0,0-3.44,7-5.64,6.62s0-11.43,0-11.43-15.72-23.46-11.25-46.69c0,0-5.86-3.84-4.17-6.25s7.9-1.14,7.9-1.14S312.7,310.49,337.11,306Z" style="fill: none; stroke: rgb(38, 50, 56); stroke-linecap: round; stroke-linejoin: round; transform-origin: 328.717px 345.502px;" id="elgadxh75z4yv" class="animable"></path><path d="M302.82,350.91a387.8,387.8,0,0,0,18.61-51.18c8.42-29.34,9.81-38.23,9.81-38.23S314.65,250,302.89,246.28s-44.05-1.87-49.68-1.1-3.3,5.39-3.3,5.39l6.73,24.5,1.74,4.92.22,52.54S268.09,355.15,302.82,350.91Z" style="fill: #FCA53C; transform-origin: 290.336px 297.737px;" id="ellxvuf06j0f" class="animable"></path><g id="elygwt3gry9ki"><path d="M302.82,350.91a387.8,387.8,0,0,0,18.61-51.18c8.42-29.34,9.45-38.78,9.45-38.78s-16.23-11-28-14.67-44.05-1.87-49.68-1.1-3.3,5.39-3.3,5.39l6.73,24.5,1.74,4.92.22,52.54S268.09,355.15,302.82,350.91Z" style="opacity: 0.3; transform-origin: 290.151px 297.747px;" class="animable" id="eli12fid52u3m"></path></g><path d="M129.9,420.73a91.06,91.06,0,0,1-18.09,5.1,30.79,30.79,0,0,1-17-1.19,30.16,30.16,0,0,1-11.86-9.22c-3-3.67-5.7-7.21-6.91-11.89a4.29,4.29,0,0,1-.07-2.65c1.92-5,15.25,5.13,17.76,6.5a45.4,45.4,0,0,0,30.84,4.51C125.29,414.91,128.44,418,129.9,420.73Z" style="fill: rgb(255, 255, 255); transform-origin: 102.847px 413.007px;" id="el1nsthm7cnbj" class="animable"></path><path d="M129.9,420.73a91.06,91.06,0,0,1-18.09,5.1,30.79,30.79,0,0,1-17-1.19,30.16,30.16,0,0,1-11.86-9.22c-3-3.67-5.7-7.21-6.91-11.89a4.29,4.29,0,0,1-.07-2.65c1.92-5,15.25,5.13,17.76,6.5a45.4,45.4,0,0,0,30.84,4.51C125.29,414.91,128.44,418,129.9,420.73Z" style="fill: none; stroke: rgb(38, 50, 56); stroke-linecap: round; stroke-linejoin: round; transform-origin: 102.847px 413.007px;" id="eltw71qlp2eof" class="animable"></path><path d="M281.43,244.67s2,7.54,10.2,6.76c8,1,11.48-4.1,11.48-4.1s-1-5.73-.05-9.61a81.17,81.17,0,0,1,3.5-10s3.91.15,6.12-1.26,4.9-7.2,4.57-14.3S309,194.85,309,194.85l-10.39-2.58-14.22.44L281.62,195l-4.88,8.37a9.49,9.49,0,0,0-.63,2.67,14.49,14.49,0,0,1-.23,4.19c-.42,1.15-2.09,3.87-2.49,6.57S275,230.31,275,230.31s.81,4.82,3.65,5.24a11.56,11.56,0,0,0,4.09,1.24,2.56,2.56,0,0,1,.65,2.59A29.87,29.87,0,0,1,281.43,244.67Z" style="fill: rgb(255, 255, 255); transform-origin: 295.307px 221.915px;" id="elu7l5yrgnl0p" class="animable"></path><path d="M258.32,277.87s-1.62-25.05-7.8-31.59l-10.65,19.38,9.55,14.74Z" style="fill: rgb(38, 50, 56); transform-origin: 249.095px 263.34px;" id="el8e9uvy895r" class="animable"></path><path d="M292.06,212.41s5.06-4.17,8.35,1.14C300.41,213.55,296,211.4,292.06,212.41Z" style="fill: rgb(38, 50, 56); transform-origin: 296.235px 212.202px;" id="elz52clitv1so" class="animable"></path><path d="M295.69,202.31a7.73,7.73,0,0,0,5.55,6.35" style="fill: none; stroke: rgb(38, 50, 56); stroke-linecap: round; stroke-linejoin: round; transform-origin: 298.465px 205.485px;" id="elc5plbvwvq8t" class="animable"></path><path d="M287.45,209a9.11,9.11,0,0,1-2.1,2.71,5.71,5.71,0,0,1-2,1.22c-1,.33-2.2.24-3.2.67a.58.58,0,0,0-.26.18.68.68,0,0,0-.11.38,4.63,4.63,0,0,0,1.87,4" style="fill: none; stroke: rgb(38, 50, 56); stroke-linecap: round; stroke-linejoin: round; transform-origin: 283.611px 213.58px;" id="elqsqkzyi758" class="animable"></path><path d="M283.36,210.21s1.29-6-4.67-4.47A7.84,7.84,0,0,1,283.36,210.21Z" style="fill: rgb(38, 50, 56); transform-origin: 281.084px 207.85px;" id="el3x1rd5ag7mn" class="animable"></path><path d="M280.38,202.31s4.52-.06,6.2-2" style="fill: none; stroke: rgb(38, 50, 56); stroke-linecap: round; stroke-linejoin: round; transform-origin: 283.48px 201.31px;" id="el4f2no1w4vwz" class="animable"></path><path d="M278.69,221.18s3.45,2.82,6.94,1.7a47.61,47.61,0,0,0,7.55-3.41s-4.89,8.79-8.74,8.27S278.69,221.18,278.69,221.18Z" style="fill: rgb(38, 50, 56); transform-origin: 285.935px 223.616px;" id="elxrr8p3k4xkf" class="animable"></path><path d="M302.82,197.68,287.5,193.2,281.72,195l-5,8.37a6.06,6.06,0,0,0-.63,2.67l0,2.67a6.2,6.2,0,0,1-.63,2.67l-1.43,2.9a6.14,6.14,0,0,0-.63,3,74.06,74.06,0,0,0,1.75,13.47c.59,2.22,3.68,5.66,5.94,6,3.65.64,10.5-1,10.5-1a5.64,5.64,0,0,0,4.16-1.84l4.66-5.11" style="fill: none; stroke: rgb(38, 50, 56); stroke-linecap: round; stroke-linejoin: round; transform-origin: 288.107px 215.049px;" id="el9wlozkxqhja" class="animable"></path><path d="M305.83,220.47s6.65-6.45,9.87-4.23-.81,10.07-4.94,11.27a5,5,0,0,1-5.93-2.41" style="fill: none; stroke: rgb(38, 50, 56); stroke-linecap: round; stroke-linejoin: round; transform-origin: 310.849px 221.761px;" id="elnv2nyhd6jub" class="animable"></path><path d="M307.66,218.6a5.91,5.91,0,0,1-2.26-.14,2,2,0,0,1-1.48-1.56,3.3,3.3,0,0,1,.61-1.93,19.37,19.37,0,0,0,2.08-6.12.82.82,0,0,0,0-.58,1,1,0,0,0-.52-.33,3.63,3.63,0,0,1-1.95-2.35,11,11,0,0,1-.33-3.13c0-1.43,0-2.85,1-3.77l-18.47-5.6L281.62,195s-5.85,0-7.26-5.84,4.23-5.78,4.23-5.78-.73-6.26,4.79-8.29,6.77,7,15,8.91,23.19,1,26.74,13.16c4,13.71.4,25.05-10,26.5,0,0,3.41-5.47.48-7.4S307.66,218.6,307.66,218.6Z" style="fill: rgb(38, 50, 56); transform-origin: 300.424px 199.227px;" id="eliqlfyimqv9p" class="animable"></path><path d="M293.38,183.69s-4.35-3.24-3.7-6.31,4.38-3.55,6.67-1,3.42,7.16,9.74,9.16-9.52,2.5-9.52,2.5Z" style="fill: rgb(38, 50, 56); transform-origin: 298.597px 181.388px;" id="eluxapbxfmn7e" class="animable"></path><g id="elhvz455vc1n"><path d="M319.64,208.28a27.66,27.66,0,0,1-2.39,6.22" style="fill: none; stroke: rgb(255, 255, 255); stroke-linecap: round; stroke-linejoin: round; opacity: 0.31; transform-origin: 318.445px 211.39px;" class="animable" id="ell4jhsy16tal"></path></g><g id="elngchlvbdaa"><path d="M289.73,179.93a9.28,9.28,0,0,0,3.85,6.12,23.19,23.19,0,0,0,6.69,3.15c2.64.88,5.33,1.64,8,2.28a21.25,21.25,0,0,1,6.68,2.29c3.44,2.17,5.18,6.41,5.15,10.48,0,.41,0,.82-.05,1.23" style="fill: none; stroke: rgb(255, 255, 255); stroke-linecap: round; stroke-linejoin: round; opacity: 0.31; transform-origin: 304.915px 192.705px;" class="animable" id="el5r49stau79r"></path></g><g id="els4wdeb88bpe"><path d="M281.4,179.69a11.65,11.65,0,0,0,4.22,11.64" style="fill: none; stroke: rgb(255, 255, 255); stroke-linecap: round; stroke-linejoin: round; opacity: 0.31; transform-origin: 283.379px 185.51px;" class="animable" id="eled4tvnfmxeo"></path></g><path d="M248.49,268.87c.26,1.51-.36,2.88-1.37,3.05s-2.05-.92-2.3-2.43.36-2.87,1.37-3.05S248.24,267.36,248.49,268.87Z" style="fill: none; stroke: rgb(38, 50, 56); stroke-linecap: round; stroke-linejoin: round; transform-origin: 246.657px 269.179px;" id="el36qxfa7bfx8" class="animable"></path><polygon points="232.51 260.95 251.54 263.32 256.38 301.59 237.36 297.49 232.51 260.95" style="fill: rgb(255, 255, 255); transform-origin: 244.445px 281.27px;" id="elpsw89wot3e" class="animable"></polygon><polygon points="232.51 260.95 251.54 263.32 256.38 301.59 237.36 297.49 232.51 260.95" style="fill: none; stroke: rgb(38, 50, 56); stroke-linecap: round; stroke-linejoin: round; transform-origin: 244.445px 281.27px;" id="elj8k2yosqxsc" class="animable"></polygon><polygon points="232.17 260.63 235.1 258.83 254.2 260.95 258.38 299.41 256.64 301.97 251.54 263.32 232.17 260.63" style="fill: rgb(38, 50, 56); transform-origin: 245.275px 280.4px;" id="el7tnpbbhoi3" class="animable"></polygon><path d="M258.32,306.38l.28,26.15s6.15,22,44.22,18.38l2.39-3.25" style="fill: none; stroke: rgb(38, 50, 56); stroke-linecap: round; stroke-linejoin: round; transform-origin: 281.765px 328.846px;" id="elo624ltqfa1" class="animable"></path><polyline points="254.96 278.72 258.32 277.87 258.32 283.78" style="fill: none; stroke: rgb(38, 50, 56); stroke-linecap: round; stroke-linejoin: round; transform-origin: 256.64px 280.825px;" id="elch4i1w4dki" class="animable"></polyline><path d="M233.15,269.09s-4.87-.12-7,1.68-5,7.15-4.74,11.09.69,5.91,3.27,7.92,20.85.32,23.86-7.08a41.9,41.9,0,0,0-12.42,1.71c-5.73,1.91,3.53-4.19,3.53-4.19s6.49-3.35,7.83-4.6,1.05-5.43,1.05-5.43,1.63-2.14.34-3.32a5.88,5.88,0,0,0-3.41-1.21l-11.55,5.52Z" style="fill: rgb(255, 255, 255); transform-origin: 235.38px 278.111px;" id="ela9pby9s5vga" class="animable"></path><path d="M233.61,269.18a10.25,10.25,0,0,0-6.29.77c-3.43,1.52-5.52,9.32-5.52,9.32a14.34,14.34,0,0,0,0,7.18s2.15,6.95,13,3.65" style="fill: none; stroke: rgb(38, 50, 56); stroke-linecap: round; stroke-linejoin: round; transform-origin: 228.072px 279.99px;" id="elp6km38lqxoc" class="animable"></path><path d="M227.7,274.13l17.72-8.47s3.41.56,4,1.85-11.31,9-16.89,10.36" style="fill: none; stroke: rgb(38, 50, 56); stroke-linecap: round; stroke-linejoin: round; transform-origin: 238.571px 271.765px;" id="el203vlc2bhib" class="animable"></path><path d="M248.49,268.87s.15,4.5-.81,6.41-10.82,6-10.82,6" style="fill: none; stroke: rgb(38, 50, 56); stroke-linecap: round; stroke-linejoin: round; transform-origin: 242.679px 275.075px;" id="el8ncg04cf9av" class="animable"></path><path d="M239.87,283.78s7.35-2.22,8.63-1.08-5.82,3.75-5.82,3.75" style="fill: none; stroke: rgb(38, 50, 56); stroke-linecap: round; stroke-linejoin: round; transform-origin: 244.262px 284.412px;" id="elyengbsjcpv" class="animable"></path><path d="M300.41,351.32S306,367.71,295,379.85,184.3,419.2,125.46,423.24l-3.31-11.4L251.4,358.1l-2.9-2.89L212,335l-1.45,43.49-15.65,5.91s-20.93-64.66-22-79.08,12-22.23,24.52-17.46,48.91,21.21,60.94,36.38l.28,8.3S262.82,352.21,300.41,351.32Z" style="fill: rgb(38, 50, 56); transform-origin: 211.99px 354.85px;" id="eljcldojdrbp" class="animable"></path><line x1="251" y1="358.02" x2="265.64" y2="351.67" style="fill: none; stroke: rgb(255, 255, 255); stroke-linecap: round; stroke-linejoin: round; transform-origin: 258.32px 354.845px;" id="elyj8hkvfm7hb" class="animable"></line><path d="M248.54,353.66a34.42,34.42,0,0,1,1.37-9.92" style="fill: none; stroke: rgb(255, 255, 255); stroke-linecap: round; stroke-linejoin: round; transform-origin: 249.224px 348.7px;" id="el1kl2z36u9en" class="animable"></path><path d="M197.42,309.21S211,319.22,212,335" style="fill: none; stroke: rgb(255, 255, 255); stroke-linecap: round; stroke-linejoin: round; transform-origin: 204.71px 322.105px;" id="eld71k8up3glf" class="animable"></path><path d="M283.36,236.94a12.89,12.89,0,0,1-1.24,7.16s-26.68-1.43-31.6,2.18L242,261" style="fill: none; stroke: rgb(38, 50, 56); stroke-linecap: round; stroke-linejoin: round; transform-origin: 262.722px 248.97px;" id="elwkez3bnkns" class="animable"></path><path d="M289.73,251.13c-7.68-1.89-8.41-6.88-8.41-6.88l-5.67-.37s2.52,11.52,13.25,13.39,20.85-7.91,20.85-7.91c-3.7-1.73-6.24-2.83-6.24-2.83S297.41,253,289.73,251.13Z" style="fill: rgb(38, 50, 56); transform-origin: 292.7px 250.694px;" id="ele346u8vleau" class="animable"></path><path d="M332.71,307.7s-19.83,6.37-29.6-7.92l2.07-17.85c2.89-6.16,10.85-19.82,24.95-21.63C337,265.35,333.63,299.17,332.71,307.7Z" style="fill: rgb(38, 50, 56); transform-origin: 318.729px 284.708px;" id="elfef80294ms9" class="animable"></path><polygon points="309.75 249.36 309.75 249.36 309.75 249.36 309.75 249.36" style="fill: rgb(38, 50, 56); transform-origin: 309.75px 249.36px;" id="ell451n5gpfle" class="animable"></polygon><path d="M328.72,308.68s-3.6,28.05-15.89,40c0,0-14.8-.63-26.23-7.94s-17.74-22.8-26.72-33.45c0,0-11.35,1.12-14.61-.93a102.59,102.59,0,0,1-9.47-7.73l1.06-3.74L234.8,291v-6.1l-1.48-1.86-.81-2.86,3.29.61L255,297.4l1.42,1.25,1.74-1.59-1.74-14.87s9.73,7.45,10.63,9.61,1.89,5.26,1.89,5.26,7.81,9.22,13.36,13.28,15.76,10.55,19.05,13.89a176.94,176.94,0,0,0,7.13-19S316.44,309.94,328.72,308.68Z" style="fill: rgb(255, 255, 255); transform-origin: 280.615px 314.43px;" id="el9z351ahlfs4" class="animable"></path><path d="M243.59,296l-10.27-12.92-.81-2.86,4.35,1,19.52,17.38,1.74-1.59-1.74-14.87s8.27,6.73,9.68,8.15,2.84,6.72,2.84,6.72a108.31,108.31,0,0,0,14.71,14.37c8.05,6.28,17.57,9.5,24,21.1" style="fill: none; stroke: rgb(38, 50, 56); stroke-linecap: round; stroke-linejoin: round; transform-origin: 270.06px 306.35px;" id="elonbcihhcgrm" class="animable"></path><polyline points="234.8 284.94 234.8 291.04 239.87 298.65" style="fill: none; stroke: rgb(38, 50, 56); stroke-linecap: round; stroke-linejoin: round; transform-origin: 237.335px 291.795px;" id="elullvhlhsfh" class="animable"></polyline><path d="M236.93,294.25l-1.13,4.4s7.2,7.44,10.86,8.5,12.85,0,12.85,0c.65-.07,3.05,3.27,3.42,3.71,5.08,5.87,8.31,12.86,12.68,19.19,8.76,12.69,21.9,17.19,37.22,18.65.51.05,12.53-14.18,15.89-40" style="fill: none; stroke: rgb(38, 50, 56); stroke-linecap: round; stroke-linejoin: round; transform-origin: 282.26px 321.475px;" id="eld1lluzo295" class="animable"></path><path d="M301.78,324.23a85.08,85.08,0,0,0,6.66-19" style="fill: none; stroke: rgb(38, 50, 56); stroke-linecap: round; stroke-linejoin: round; transform-origin: 305.11px 314.73px;" id="elhum7xfbwgg7" class="animable"></path><path d="M306.56,227.3c-3.07,6.55-4.44,11.74-3.67,19,0,0,25.57,9.94,28.35,15.22s4.46,30.24,1.22,45.35" style="fill: none; stroke: rgb(38, 50, 56); stroke-linecap: round; stroke-linejoin: round; transform-origin: 318.456px 267.085px;" id="ell4ach2pwabr" class="animable"></path><path d="M282.05,244.4s10.65,3.48,13.7-10.44l-3.05,1.73-9,1.41Z" style="fill: rgb(38, 50, 56); transform-origin: 288.9px 239.373px;" id="elo4clqsyxwja" class="animable"></path></g><defs>     <filter id="active" height="200%">         <feMorphology in="SourceAlpha" result="DILATED" operator="dilate" radius="2"></feMorphology>                <feFlood flood-color="#32DFEC" flood-opacity="1" result="PINK"></feFlood>        <feComposite in="PINK" in2="DILATED" operator="in" result="OUTLINE"></feComposite>        <feMerge>            <feMergeNode in="OUTLINE"></feMergeNode>            <feMergeNode in="SourceGraphic"></feMergeNode>        </feMerge>    </filter>    <filter id="hover" height="200%">        <feMorphology in="SourceAlpha" result="DILATED" operator="dilate" radius="2"></feMorphology>                <feFlood flood-color="#ff0000" flood-opacity="0.5" result="PINK"></feFlood>        <feComposite in="PINK" in2="DILATED" operator="in" result="OUTLINE"></feComposite>        <feMerge>            <feMergeNode in="OUTLINE"></feMergeNode>            <feMergeNode in="SourceGraphic"></feMergeNode>        </feMerge>            <feColorMatrix type="matrix" values="0   0   0   0   0                0   1   0   0   0                0   0   0   0   0                0   0   0   1   0 "></feColorMatrix>    </filter></defs></svg>